<svg width="60" height="60" viewBox="0 0 100 100" fill="none" xmlns="http://www.w3.org/2000/svg"><path d="M30.345 48.966l.408-.116-2.095-2.075c-5.025-4.976-5.025-13.073 0-18.049 4.047-4.008 10.367-4.885 15.37-2.13l2.812 1.547a62.023 62.023 0 0113.754 10.275 61.751 61.751 0 018.174 10.015l1.887.533C76.157 50.523 80 55.57 80 61.237 80 68.275 74.22 74 67.114 74h-33.23C26.78 74 21 68.275 21 61.237c0-5.668 3.843-10.714 9.345-12.27zm.277 1.894c.12 2.492.346 4.999.701 7.464.02.141.268.141.29 0 .378-2.628.617-5.3.73-7.963l-1.475.418c-.083.023-.163.055-.246.08zm12.481-22.617c-.076-.042-.155-.076-.232-.115a80.085 80.085 0 00-4.833 5.77.145.145 0 00.203.202 80.306 80.306 0 006.201-5.12l-1.339-.737zm3.087 1.704a82.512 82.512 0 01-6.806 5.66c-.363.27-.795.403-1.227.403-.53 0-1.057-.2-1.452-.59a2.025 2.025 0 01-.19-2.653 81.798 81.798 0 014.495-5.396c-3.824-1.162-8.102-.187-11.006 2.69a10.816 10.816 0 000 15.383l2.843 2.815.591-.167a62.667 62.667 0 0116.313-2.343 81.978 81.978 0 015.507-6.046l1.918-1.9a59.338 59.338 0 00-2.904-2.455l-.36.356a82.317 82.317 0 01-8.809 7.566c-.363.271-.796.404-1.227.404-.53 0-1.056-.2-1.451-.591a2.024 2.024 0 01-.19-2.652 81.691 81.691 0 017.361-8.439 59.55 59.55 0 00-3.406-2.045zm-4.255 18.272c-.635.09-1.27.188-1.902.299.002 3.74.273 7.514.807 11.22.02.14.268.14.29 0 .533-3.716.805-7.502.805-11.253v-.266zm9.517-.594c-.317-.005-.634-.016-.952-.016-.318 0-.635.011-.952.016v2.744c0 3.751.273 7.537.807 11.253.02.141.269.141.29 0 .534-3.715.807-7.501.807-11.252v-2.745zm-.255-14.563a79.945 79.945 0 00-7.44 8.499.145.145 0 00.205.202 80.335 80.335 0 008.605-7.393l.19-.187a60.738 60.738 0 00-1.56-1.121zm7.366 6.033l-1.96 1.94c-1.518 1.505-2.967 3.1-4.365 4.73.653.017 1.304.047 1.956.085a80.153 80.153 0 003.756-3.482l1.953-1.934c-.22-.226-.43-.462-.655-.684-.225-.222-.457-.436-.685-.655zm6.115 7.273c-.268.265-.526.542-.79.811.685.15 1.369.31 2.05.484a60.39 60.39 0 00-1.083-1.47l-.177.175zm-3.004.37a80.488 80.488 0 011.659-1.703l.36-.356a60.649 60.649 0 00-2.482-2.875l-1.915 1.898a82.4 82.4 0 01-2.488 2.35c1.63.164 3.253.395 4.866.685zm-2.61 1.48v.267c0 3.75.273 7.537.807 11.253.02.14.269.14.29 0 .534-3.706.805-7.48.807-11.22a61.83 61.83 0 00-1.904-.3zm9.594 2.144c.112 2.663.35 5.334.73 7.963.02.141.268.141.289 0 .355-2.465.581-4.972.701-7.464-.082-.026-.162-.058-.246-.081l-1.474-.418zM33.886 72.115h33.228c6.056 0 10.983-4.88 10.983-10.878 0-4.061-2.32-7.74-5.846-9.6a80.833 80.833 0 01-.69 6.954 2.053 2.053 0 01-2.029 1.742 2.053 2.053 0 01-2.028-1.742 81.086 81.086 0 01-.772-8.769c-1.28-.355-2.57-.67-3.869-.94-.018 3.71-.289 7.45-.819 11.122a2.053 2.053 0 01-2.028 1.743 2.053 2.053 0 01-2.028-1.743 80.921 80.921 0 01-.827-11.52v-.504a60.414 60.414 0 00-3.806-.296v2.686c0 3.84-.278 7.716-.827 11.52a2.053 2.053 0 01-2.028 1.742 2.053 2.053 0 01-2.028-1.743 80.907 80.907 0 01-.827-11.52v-2.685c-1.272.06-2.542.157-3.806.296v.505c0 3.84-.278 7.716-.827 11.52a2.053 2.053 0 01-2.028 1.742 2.053 2.053 0 01-2.028-1.743 80.871 80.871 0 01-.82-11.123c-1.298.27-2.588.586-3.868.941a80.839 80.839 0 01-.772 8.768 2.053 2.053 0 01-2.028 1.743 2.053 2.053 0 01-2.028-1.742 80.812 80.812 0 01-.691-6.955c-3.526 1.86-5.846 5.54-5.846 9.601 0 5.997 4.927 10.878 10.983 10.878z" fill="#234cad"/><rect x="1" y="1" width="98" height="98" rx="14" stroke="#234cad" stroke-width="2"/></svg>