<svg width="60" height="60" viewBox="0 0 100 100" fill="none" xmlns="http://www.w3.org/2000/svg"><rect x="1" y="1" width="98" height="98" rx="14" stroke="#234cad" stroke-width="2"/><path d="M64.344 53.43a.945.945 0 01-1.818-.513l.534-1.89a.945.945 0 011.818.513l-.534 1.89zM63.014 56.391c.201.271.242.629.107.939a13.535 13.535 0 01-8.67 7.548.945.945 0 01-.534-1.813 11.651 11.651 0 007.472-6.488.945.945 0 011.625-.186z" fill="#234cad"/><path d="M21 25.238c.001-.5.203-.978.56-1.327l1.343-1.343A1.87 1.87 0 0124.239 22c.51-.003.999.2 1.358.56l12.078 12.078a12.264 12.264 0 0124.036 2.903 12.26 12.26 0 016.562 9.694 2.82 2.82 0 01.924 2.916l-1.852 6.554a17.278 17.278 0 01-11.757 11.761l.105.023a5.304 5.304 0 00.123 2.667 6.622 6.622 0 015.925 6.576.944.944 0 01-.944.945h-22.67a.945.945 0 01-.946-.945 6.621 6.621 0 015.925-6.576 5.304 5.304 0 00.124-2.667l.105-.023a17.277 17.277 0 01-11.757-11.76l-1.852-6.555-.002-.009a2.817 2.817 0 01.926-2.909 12.21 12.21 0 013.806-7.74L21.559 26.596A1.892 1.892 0 0121 25.238zm28.461 2.43a10.4 10.4 0 00-10.298 9.074c3.465-1.1 7.24-.6 10.298 1.365a12.215 12.215 0 0110.298-1.365 10.4 10.4 0 00-10.298-9.074zm6.613 10.39a10.377 10.377 0 00-10.215 8.502h20.42a10.385 10.385 0 00-10.205-8.502zm-16.908 38.73h20.591a4.731 4.731 0 00-4.628-3.779H43.794a4.731 4.731 0 00-4.628 3.779zM53.72 68.92a17.89 17.89 0 01-3.268.31H48.47a17.892 17.892 0 01-3.268-.31c.07.735.028 1.477-.125 2.2h8.768a7.28 7.28 0 01-.124-2.2zM32.002 48.584a.94.94 0 00-.457 1.059l1.851 6.551A15.578 15.578 0 0048.47 67.342h1.983a15.579 15.579 0 0015.074-11.15l1.85-6.545a.941.941 0 00-.462-1.065 1.012 1.012 0 00-.507-.133H32.515c-.18 0-.357.046-.513.135zm.642-2.024h11.31a12.244 12.244 0 013.886-7.222 10.374 10.374 0 00-15.196 7.222zm3.3-8.25a12.28 12.28 0 011.263-.767c.01-.223.013-.448.034-.667l-1.694-1.692c-.01.003-.016.01-.026.013l-2.152.538 2.576 2.575zm-4.133-4.134l2.182-.545-2.227-2.224c-.008.002-.014.009-.023.011l-2.153.538 2.22 2.22zm-3.779-3.778l2.179-.545-2.226-2.223c-.008.002-.013.008-.02.01l-2.153.538 2.22 2.22zm-3.778-3.778l2.175-.544-2.182-2.18-1.351 1.366 1.358 1.358z" fill="#234cad"/></svg>