<svg width="60" height="60" viewBox="0 0 100 100" fill="none" xmlns="http://www.w3.org/2000/svg">
  <rect x="1" y="1" width="98" height="98" rx="14" stroke="#234cad" stroke-width="2"/>
  <path d="M18 55.6a3.05 3.05 0 013.05-3.04h4.06a3.04 3.04 0 011.02 5.91v.19c0 .56.46 1.01 1.02 1.01h2.03v-6.24a4.06 4.06 0 01-3.05-3.92c0-2.03 1.5-3.7 3.46-4-1.37-3.7 1.05-10.01 6.2-16.17l-1.69-1.7a3.04 3.04 0 01-3.46-.58 3.05 3.05 0 010-4.32l4.31-4.3a3.05 3.05 0 014.9 3.46l1.7 1.69c7.22-6.05 14.66-8.34 17.84-5.16.4.4.4 1.04 0 1.44L33.8 45.44h35a4.06 4.06 0 011.02 7.99v6.24h2.04c.56 0 1.01-.45 1.01-1.01v-.19a3.04 3.04 0 011.02-5.91h4.06a3.04 3.04 0 011.02 5.91v1.2a6.1 6.1 0 01-6.1 6.1h-3.05v7.12c0 3.92-3.19 7.11-7.11 7.11H36.29a7.12 7.12 0 01-7.11-7.11v-7.12h-3.05a6.1 6.1 0 01-6.1-6.1v-1.2A3.04 3.04 0 0118 55.61zm19.83-35.73c-.4-.4-1.04-.4-1.44 0l-4.31 4.31a1.02 1.02 0 001.44 1.44l4.3-4.31c.4-.4.4-1.04 0-1.44zm.72 3.6l-2.88 2.87 1.47 1.47a47.32 47.32 0 012.88-2.88l-1.47-1.46zm1.43 4.3c-5.6 5.62-10.07 13.55-8.48 17.12l25.6-25.6c-3.57-1.59-11.5 2.88-17.12 8.49zm30.87 21.74c0-1.12-.91-2.03-2.03-2.03H30.2a2.03 2.03 0 000 4.06h38.62c1.12 0 2.03-.9 2.03-2.03zm7.11 5.08H73.9a1.02 1.02 0 000 2.03h4.06a1.02 1.02 0 000-2.03zm-5.08 9.15a4.07 4.07 0 004.07-4.07v-1.01H74.9a3.05 3.05 0 01-3.04 3.05h-2.04v2.03h3.05zM36.3 77.97h26.43c2.8 0 5.08-2.28 5.08-5.08V53.58H31.21v19.3c0 2.8 2.28 5.09 5.08 5.09zM26.13 63.74h3.05V61.7h-2.03a3.05 3.05 0 01-3.05-3.05h-2.03v1.01a4.07 4.07 0 004.06 4.07zm-5.08-7.12h4.06a1.02 1.02 0 000-2.03h-4.06a1.02 1.02 0 000 2.03z" fill="#234cad"/>
  <path d="M34.26 72.89c0 1.12.91 2.03 2.03 2.03v2.03a4.07 4.07 0 01-4.06-4.06V58.66h2.03v14.23zM64.52 36.95a2.65 2.65 0 000 3.77l1.97 1.97-1.44 1.44-1.97-1.97a4.66 4.66 0 010-6.64l.9-.9a2.65 2.65 0 00-.01-3.76L62 28.89l1.44-1.44 1.97 1.97a4.66 4.66 0 010 6.64l-.9.9zM52.85 28.89l1.44-1.44 1.97 1.97a4.66 4.66 0 010 6.64l-.9.9a2.64 2.64 0 000 3.76l1.98 1.97-1.44 1.44-1.97-1.97a4.66 4.66 0 010-6.64l.9-.9a2.65 2.65 0 000-3.76l-1.98-1.97z" fill="#234cad"/>
</svg>