<svg width="60" height="60" viewBox="0 0 100 100" fill="none" xmlns="http://www.w3.org/2000/svg">
  <rect x="1" y="1" width="98" height="98" rx="14" stroke="#234cad" stroke-width="2"/>
  <path d="M76.08 49.44h-.86c-.08-.5-.12-.98-.03-1.33.17-.62.72-1.28 1.26-1.91.76-.9 1.54-1.83 1.55-2.97.01-1.42-.97-2.49-1.84-3.42-.47-.51-.92-1-1.1-1.41-.2-.5-.3-1.19-.4-1.85-.2-1.37-.44-2.93-1.75-3.6-1.31-.68-2.72.05-3.95.68-.6.3-1.2.62-1.74.75-.4.1-.98.03-1.5-.03a.82.82 0 00-.2 1.63c.7.08 1.42.15 2.08 0a9.7 9.7 0 002.1-.89c.98-.5 1.9-.97 2.46-.68.56.28.71 1.3.88 2.38.1.76.23 1.54.5 2.23.3.7.86 1.31 1.41 1.9.7.75 1.42 1.52 1.4 2.3 0 .54-.59 1.24-1.16 1.92-.64.77-1.32 1.57-1.58 2.54a4.45 4.45 0 00-.04 1.76h-5.51a3.6 3.6 0 00-.75-1.98 54.8 54.8 0 001.46-4.68.82.82 0 10-1.59-.41c-.32 1.2-.68 2.4-1.08 3.58a5.18 5.18 0 01-1.07-1.74c-.16-.56 0-1.36.17-2.22.24-1.22.51-2.61-.1-3.8-.6-1.17-1.88-1.76-3.02-2.28-.79-.36-1.54-.7-1.9-1.16a6.4 6.4 0 01-.9-2.33c-.3-1.22-.62-2.48-1.6-3.2-1.22-.9-2.76-.7-4.12-.53-.75.1-1.46.18-1.95.07a9.3 9.3 0 01-1.89-.82c-1.32-.68-2.82-1.45-4.2-.73-1.32.67-1.61 2.2-1.83 3.62a4.56 4.56 0 01-1.56-1 6.4 6.4 0 01-.9-2.33c-.3-1.22-.62-2.49-1.6-3.2-1.21-.9-2.76-.7-4.11-.53-.75.1-1.46.18-1.95.07a9.29 9.29 0 01-1.9-.82c-1.32-.68-2.81-1.45-4.2-.74-1.39.71-1.64 2.38-1.86 3.85-.1.72-.22 1.46-.44 2.01-.2.47-.68 1-1.2 1.55-.93 1-1.98 2.14-1.97 3.65.01 1.2.85 2.2 1.66 3.16.58.7 1.19 1.41 1.37 2.1.15.55 0 1.36-.17 2.22-.24 1.22-.51 2.6.1 3.79.6 1.18 1.88 1.77 3.02 2.29.79.36 1.53.7 1.9 1.16.29.35.48.84.64 1.38h-6.6c-1.09 0-1.98.94-1.92 2.02.18 3.02.99 5.9 2.41 8.56a.82.82 0 101.45-.77 18.84 18.84 0 01-2.22-7.89c0-.16.1-.27.28-.28h52.16c.18 0 .29.12.28.28a19 19 0 01-5.55 12.37 18.75 18.75 0 01-13.47 5.58H42.66c-5.77 0-11.09-2.5-14.77-7.02a.82.82 0 10-1.28 1.03 20.64 20.64 0 009.7 6.64v2.34a5.7 5.7 0 005.7 5.7h15.97a5.7 5.7 0 005.7-5.7v-2.34A20.64 20.64 0 0078 51.46a1.93 1.93 0 00-1.92-2.02zm-34.9 0a57.3 57.3 0 01-7.62-17.02.82.82 0 00-1.58.42 58.86 58.86 0 007.24 16.6h-7a6.3 6.3 0 00-1.06-2.42 6.7 6.7 0 00-2.5-1.61c-.94-.43-1.9-.88-2.25-1.55-.34-.67-.14-1.72.06-2.73.2-1 .4-2.04.15-2.97a7.5 7.5 0 00-1.7-2.71c-.63-.74-1.27-1.51-1.28-2.12 0-.86.78-1.71 1.54-2.53.59-.64 1.2-1.3 1.5-2.04.3-.73.43-1.57.55-2.39.18-1.18.35-2.3.99-2.63.63-.32 1.64.2 2.7.74.74.38 1.5.77 2.27.95.78.19 1.67.08 2.53-.03 1.1-.14 2.25-.28 2.95.23.5.36.74 1.33.97 2.27.27 1.05.54 2.13 1.22 2.96a6.7 6.7 0 002.49 1.62c.94.43 1.9.87 2.25 1.55.34.67.14 1.71-.06 2.72-.2 1-.4 2.04-.14 2.97.1.42.3.8.5 1.15a7 7 0 00-3.29 8.57h-1.43zm12.8 0H44.4a5.35 5.35 0 119.6 0zm5.74 0h-3.95a7 7 0 00-1.95-7.64 5.37 5.37 0 015.9 7.64zm1.78 0a7 7 0 00-9.45-8.78 6.96 6.96 0 00-4.58-.4c-.21-.3-.4-.63-.49-.97-.15-.56 0-1.37.17-2.22.24-1.23.51-2.61-.09-3.8a4.24 4.24 0 00-1.82-1.7c.17-1.16.33-2.55 1.02-2.9.64-.33 1.65.19 2.71.73.73.38 1.49.77 2.26.95.78.19 1.67.08 2.54-.03 1.1-.14 2.25-.28 2.95.23.49.36.73 1.33.97 2.27a7.5 7.5 0 001.21 2.97 6.7 6.7 0 002.5 1.61c.93.43 1.9.87 2.25 1.55.34.67.14 1.72-.06 2.73-.2 1-.4 2.03-.15 2.96.28 1.04 1 1.9 1.7 2.72.61.73 1.24 1.48 1.27 2.08H61.5zm.54 22.86a4.06 4.06 0 01-4.06 4.06H42.02a4.06 4.06 0 01-4.06-4.06v-1.89c1.52.35 3.1.54 4.7.54h14.68c1.6 0 3.18-.18 4.7-.54v1.9z" fill="#234cad"/>
</svg>