<svg width="60" height="60" viewBox="0 0 100 100" fill="none" xmlns="http://www.w3.org/2000/svg">
  <rect x="1" y="1" width="98" height="98" rx="14" stroke="#234cad" stroke-width="2"/>
  <path d="M57.85 60.85A1.4 1.4 0 0059 59.47V57.3v-.04a.69.69 0 00-.04-.17.49.49 0 00-.13-.24l-.04-.05a.7.7 0 00-.21-.14L41.86 49.4a2.1 2.1 0 00-2.43.6 2.8 2.8 0 01-4.92-2.15c.13-.91-.37-1.8-1.21-2.16l-3.38-1.46c-.65-.3-1.39-.3-2.05-.04a17.5 17.5 0 00-6.93 4.91 17.9 17.9 0 00-3.84 7.64l-.1.4v.08l-.01.08v17.5a2.8 2.8 0 002.8 2.8h18.97a1.4 1.4 0 001.38-1.14 2.1 2.1 0 014.1 0c.13.66.7 1.14 1.38 1.14H56.2a2.8 2.8 0 002.8-2.8v-8.47a1.4 1.4 0 00-1.14-1.38 2.1 2.1 0 010-4.1zM22.01 50.01a16.1 16.1 0 016.38-4.52 1.3 1.3 0 01.99.02l3.37 1.46c.27.12.43.4.38.7a4.2 4.2 0 007.37 3.25.7.7 0 01.81-.23l13.62 5.91H18.58c.63-2.43 1.8-4.68 3.43-6.59zM57.6 66.33v8.47c0 .77-.63 1.4-1.4 1.4l-10.58-.02a3.5 3.5 0 00-6.85.02H19.8a1.4 1.4 0 01-1.4-1.4V58h39.19l-.03 1.48a3.5 3.5 0 00.04 6.85z" fill="#234cad"/>
  <path d="M50.6 72a2.8 2.8 0 105.6 0 2.8 2.8 0 00-5.6 0zm4.2 0a1.4 1.4 0 11-2.8 0 1.4 1.4 0 012.8 0zM33.1 62.9a4.2 4.2 0 100 8.4 4.2 4.2 0 000-8.4zm0 7a2.8 2.8 0 110-5.6 2.8 2.8 0 010 5.6zM43.6 60.1a3.5 3.5 0 100 7 3.5 3.5 0 000-7zm0 5.6a2.1 2.1 0 110-4.2 2.1 2.1 0 010 4.2zM25.4 63.6a2.1 2.1 0 10-4.2 0 2.1 2.1 0 004.2 0zm-2.8 0a.7.7 0 111.4 0 .7.7 0 01-1.4 0zM24.7 69.9a2.1 2.1 0 100 4.2 2.1 2.1 0 000-4.2zm0 2.8a.7.7 0 110-1.4.7.7 0 010 1.4zM42 70.1a.73.73 0 00-1 0 .8.8 0 00-.14.24.66.66 0 000 .53c.06.17.2.31.37.38.17.07.37.07.54 0a.8.8 0 00.23-.15c.13-.13.2-.31.2-.5a.8.8 0 00-.2-.5zM34.5 61.5a.7.7 0 00.64-.96.73.73 0 00-.14-.24.7.7 0 00-.77-.14.65.65 0 00-.23.14.8.8 0 00-.14.24.7.7 0 00.64.96zM51.3 65a.7.7 0 00.64-.96.69.69 0 00-1.28 0 .7.7 0 00.64.96zM40.51 34.78a8.15 8.15 0 014-8.35 6.72 6.72 0 014.99-6.27 4.71 4.71 0 013.48-4.64 4.85 4.85 0 013.34.3 5.23 5.23 0 012.65-1.22A5.07 5.07 0 0164.6 18l.27.03.18-.6c.94-2.66 3.02-4.44 5.2-4.42a4.4 4.4 0 013.58 2.03 4.6 4.6 0 016.64 1.34c1 1.54 1.3 3.65.88 5.77a5.54 5.54 0 012.54 2.47 8.48 8.48 0 01.31 6.7c-.09.26-.19.52-.3.77a5.58 5.58 0 012.71 2.53 7.4 7.4 0 01.08 6.3 9.43 9.43 0 01-1.78 2.77 4.7 4.7 0 01-.1 3.64 6.19 6.19 0 01-4.17 3.52c-2.14 5.7-5.43 8.49-10.67 11.57l-.06.04a5 5 0 01-2.46 1.06c-.52.07-1.05.07-1.56.01h-.02-.01a5.4 5.4 0 01-1.24-.3c-1.82-.7-2.74-2.21-2.4-3.95 1-5 .33-8.54-1.96-10.53-3.96-3.46-11.66-1.33-11.74-1.31l-.9.25-.21-.86c-.03-.12-.7-2.83.7-4.94l.26-.36c-.49-.03-.98-.1-1.46-.22-3.36-.82-5.87-3.38-6.4-6.53zm38.6 15.05l.19-.5.55-.08h.02a4.38 4.38 0 003.28-2.56c.41-.97.38-1.96-.09-2.7l-.36-.6.51-.47a7.69 7.69 0 001.82-2.63c.71-1.72.7-3.5-.02-4.88a3.84 3.84 0 00-2.57-1.98l-1.12-.26.55-.98c.26-.46.47-.93.63-1.4.65-1.9.58-3.9-.2-5.37a3.76 3.76 0 00-2.27-1.91l-.81-.24.21-.8.03-.09c.52-1.88.33-3.78-.51-5.08a2.91 2.91 0 00-1.9-1.35c-.93-.17-1.96.2-2.9 1.02l-.93.82-.5-1.1c-.56-1.23-1.47-1.94-2.52-1.95-1.36-.02-2.77 1.31-3.45 3.22l-.14.46.06.03a6.23 6.23 0 012.22 1.46l.07.08c.2.2.37.41.53.64l.11.16a6.12 6.12 0 011 2.9 7.02 7.02 0 016.87 5.9 6.7 6.7 0 01-.23 2.93 5.2 5.2 0 01-.36 8.56l.18 1.34.04.43.07.87.01.48a19.86 19.86 0 01-.11 3.2l-.06.46-.12.74-.07.4-.2.9-.06.24c-.1.37-.2.74-.32 1.11l-.11.32-.28.8-.17.42-.28.69-.21.46a29.2 29.2 0 01-1.52 2.96l-.27.48-.44.73-.27.45-.02.04c3-2.22 5-4.68 6.45-8.77zM51.36 39.36l.23-.08.89.07.37 1.87-.88.17a3.42 3.42 0 00-2.33 1.4c-.6.9-.65 2-.6 2.75 2.42-.5 8.64-1.4 12.44 1.91 2.78 2.42 3.63 6.5 2.52 12.13-.25 1.24.72 1.81 1.31 2.04l.14.04a52.69 52.69 0 001.79-11.5v-.06c.08-2.65-.11-5-.5-7.06-1.54-1.86-5.2-1.4-5.25-1.4a.88.88 0 01-1-.73.88.88 0 01.77-.97c.15-.03 2.69-.34 4.88.57a21.45 21.45 0 00-1.82-4.34.81.81 0 01-.28-.5 18.51 18.51 0 00-2.78-3.59c-4.1-.21-6.93 1.43-6.99 1.46a.9.9 0 01-1.23-.27.85.85 0 01.29-1.18 14.5 14.5 0 015.98-1.7 14.23 14.23 0 00-3.84-2.12c-1.38-.4-3.15.64-3.72 1.08a.92.92 0 01-.43.18.9.9 0 01-.83-.3.84.84 0 01.14-1.22 7.88 7.88 0 014-1.55 4.75 4.75 0 00-.98-1.46.84.84 0 01-.01-1.22.92.92 0 011.26-.02 5.95 5.95 0 011.7 3.08 18.97 18.97 0 018.58 7.4c2.19-1.94 1.37-4.71 1.33-4.85a.87.87 0 01.6-1.08.9.9 0 011.11.56 6.46 6.46 0 01-2.15 6.9 24.6 24.6 0 012.35 6.78c.36 1.83.57 3.89.6 6.17a4.41 4.41 0 001.44-1.77.92.92 0 011.15-.53c.47.16.7.65.54 1.1-.03.1-.82 2.14-3.17 3.23a53.8 53.8 0 01-1.73 11.05c.56-.09 1.1-.3 1.53-.66l.22-.21c.09-.1.18-.18.25-.29l.01-.01.31-.46c4.66-6.97 6.78-11.87 5.46-19.36l-.11-.62.58-.3a3.63 3.63 0 001.98-3.72c-.15-1.07-.8-2-1.76-2.56l-.65-.37.29-.69c.36-.86.48-1.79.34-2.69-.4-2.78-3-4.72-5.91-4.4l-1.09.1.1-1.04a4.24 4.24 0 00-.2-1.8l-.08-.18a4.32 4.32 0 00-.77-1.27l-.02-.02a4.58 4.58 0 00-1.23-.96l-.2-.1a4.68 4.68 0 00-2.36-.45l-.83.06-.11-.79-.01-.07a3.28 3.28 0 00-3.76-2.63 3.4 3.4 0 00-2.08 1.15l-.54.63-.68-.48a2.97 2.97 0 00-2.49-.43 2.9 2.9 0 00-2.11 2.34c-.06.37-.04.73.06 1.07l.23.94-1 .15a4.95 4.95 0 00-4.3 5.17l.04.56-.52.27a6.45 6.45 0 00-3.55 6.8 6.6 6.6 0 005.09 5.16c1.34.32 2.65.23 3.98-.28z" fill="#234cad"/>
</svg>