<?xml version="1.0" standalone="no"?>
<!DOCTYPE svg PUBLIC "-//W3C//DTD SVG 20010904//EN"
 "http://www.w3.org/TR/2001/REC-SVG-20010904/DTD/svg10.dtd">
<svg version="1.0" xmlns="http://www.w3.org/2000/svg"
 width="700.000000pt" height="700.000000pt" viewBox="0 0 700.000000 700.000000"
 preserveAspectRatio="xMidYMid meet">
<metadata>
Created by potrace 1.11, written by Peter Selinger 2001-2013
</metadata>
<g transform="translate(0.000000,700.000000) scale(0.100000,-0.100000)"
fill="#000000" stroke="none">
<path d="M3338 6995 c-1 -1 -30 -6 -63 -9 -33 -3 -85 -10 -115 -16 -30 -6 -66
-13 -80 -16 -47 -9 -186 -51 -260 -79 -240 -92 -463 -238 -663 -434 -62 -61
-116 -105 -125 -104 -275 37 -414 35 -627 -8 -611 -124 -1117 -572 -1314
-1165 -38 -113 -64 -220 -77 -316 -9 -68 -12 -397 -4 -437 5 -20 11 -56 14
-81 9 -77 55 -243 97 -351 146 -377 424 -696 776 -891 l60 -33 -1 -1220 c-1
-671 2 -1245 6 -1275 33 -227 178 -415 387 -506 42 -18 92 -36 111 -40 19 -5
928 -10 2020 -11 2154 -3 2047 -5 2175 52 164 72 290 207 353 380 34 92 35
121 36 1374 2 1226 2 1244 21 1256 84 50 211 130 215 135 3 3 23 19 45 36 136
100 302 283 406 449 138 219 222 458 259 735 8 64 5 363 -5 430 -36 249 -132
506 -269 719 -16 25 -32 49 -37 55 -5 6 -36 45 -69 87 -80 103 -235 249 -351
331 -207 148 -490 263 -739 302 -159 25 -403 23 -527 -4 l-42 -10 -63 67
c-100 105 -225 210 -338 285 -105 70 -334 188 -363 188 -9 0 -19 5 -22 10 -3
6 -16 10 -29 10 -12 0 -26 4 -32 9 -5 5 -56 22 -114 36 -125 32 -105 28 -250
51 -38 6 -396 14 -402 9z m397 -329 c754 -123 1313 -740 1351 -1491 8 -158 28
-200 110 -231 80 -31 155 1 194 82 21 42 22 55 16 152 -9 150 -15 190 -52 368
-19 95 -97 299 -156 413 -24 45 -35 77 -29 80 13 8 178 6 246 -4 79 -10 87
-11 150 -25 80 -17 245 -74 319 -112 133 -67 260 -160 376 -277 229 -230 365
-502 409 -816 15 -104 7 -376 -14 -465 -9 -41 -18 -82 -20 -91 -2 -8 -15 -51
-30 -95 -123 -360 -396 -667 -740 -831 -33 -15 -70 -37 -83 -48 -56 -47 -54
-11 -55 -879 l-2 -801 -2225 0 -2225 0 -1 785 c-1 432 -2 797 -3 812 -2 45
-47 85 -169 148 -643 334 -938 1066 -703 1745 87 249 232 455 457 646 151 129
410 249 614 285 14 3 31 7 37 9 43 15 316 25 329 13 3 -3 -12 -39 -34 -79 -76
-144 -143 -336 -176 -506 -21 -108 -26 -151 -32 -278 -5 -101 -3 -114 18 -155
45 -88 142 -113 227 -57 55 36 68 73 74 207 4 63 8 126 11 140 3 14 7 43 11
65 8 58 33 150 62 235 168 486 585 880 1073 1012 159 43 266 56 450 53 96 -2
193 -6 215 -9z m1972 -5395 l22 -1 -2 -349 -2 -348 -35 -68 c-42 -82 -103
-137 -185 -166 -57 -20 -69 -20 -1999 -20 -1067 1 -1954 3 -1970 6 -110 21
-216 119 -248 230 -8 26 -12 155 -13 377 l-2 337 26 3 c22 3 4343 1 4408 -1z"/>
<path d="M1672 3795 c-23 -13 -45 -37 -60 -65 -19 -38 -22 -56 -18 -115 10
-139 63 -295 167 -495 87 -166 264 -429 353 -525 84 -91 239 -47 265 75 14 65
3 92 -88 214 -213 284 -362 575 -377 736 -10 113 -32 151 -100 181 -52 23 -93
22 -142 -6z"/>
<path d="M3424 3797 c-25 -15 -47 -37 -61 -67 -23 -44 -23 -45 -23 -547 0
-546 0 -544 55 -596 28 -26 94 -48 124 -42 57 12 111 56 131 109 7 19 10 195
10 535 -1 503 -1 506 -23 545 -43 77 -138 104 -213 63z"/>
<path d="M5182 3800 c-65 -29 -82 -63 -97 -192 -18 -158 -182 -471 -386 -738
-72 -94 -88 -129 -83 -179 6 -48 24 -80 66 -114 30 -24 45 -29 87 -29 76 1
108 27 213 170 232 315 379 609 419 837 22 127 -4 205 -80 245 -46 23 -88 23
-139 0z"/>
</g>
</svg>
