<svg width="19" height="19" fill="none" xmlns="http://www.w3.org/2000/svg"><path d="M9.5 16.625a.396.396 0 00-.396.396v1.583a.396.396 0 10.792 0v-1.583a.396.396 0 00-.396-.396zM5.29 1.417a.395.395 0 10-.685.396l.396.686a.395.395 0 10.685-.396l-.396-.686zM13.999 16.5a.396.396 0 10-.685.397l.396.686a.395.395 0 10.684-.396L14 16.5zM2.499 5l-.685-.395a.395.395 0 10-.396.686l.685.396A.396.396 0 002.499 5zM17.582 13.71l-.685-.397a.397.397 0 00-.396.686l.685.396a.396.396 0 00.396-.686zM2.375 9.5a.396.396 0 00-.396-.396H.396a.396.396 0 100 .792h1.583a.396.396 0 00.396-.396zM2.103 13.313l-.685.396a.395.395 0 10.396.686l.685-.396a.395.395 0 10-.396-.686zM5.542 16.356a.397.397 0 00-.54.145l-.397.686a.395.395 0 10.685.395l.396-.685a.395.395 0 00-.144-.541zM9.5 0a.396.396 0 00-.396.396V9.5c0 .219.177.396.396.396h9.104A.396.396 0 0019 9.5C19 4.262 14.74 0 9.5 0zm.396 9.104V.801c4.487.201 8.101 3.816 8.304 8.303H9.896z" fill="#234cad"/></svg>