<svg width="65" height="68" fill="none" xmlns="http://www.w3.org/2000/svg"><path d="M64 32.5C64 49.897 49.897 64 32.5 64S1 49.897 1 32.5 15.103 1 32.5 1 64 15.103 64 32.5z" stroke="#234cad" stroke-width="2"/><path fill-rule="evenodd" clip-rule="evenodd" d="M31 21.48c0-.818-.733-1.48-1.638-1.48-.905 0-1.724.662-1.724 1.48 0 .819-.733 1.559-1.638 1.559-.905 0-1.724-.74-1.724-1.559 0-.818-.733-1.48-1.638-1.48-.905 0-1.638.662-1.638 1.48 0 2.494 2.241 4.52 5 4.52s5-2.026 5-4.52zM41.455 19C39.5 19 38 20.59 38 22.546 38 24.5 39.5 26 41.455 26 43.409 26 45 24.5 45 22.546 45 20.59 43.364 19 41.455 19zM41.165 42.763c-1.225 1.523-.04 4.401 2.572 6.5 2.611 2.1 5.555 2.543 6.78 1.02 1.224-1.524.217-4.375-2.394-6.475-2.611-2.1-5.762-2.533-6.958-1.045z" fill="#234cad"/><path fill-rule="evenodd" clip-rule="evenodd" d="M49.484 31.41c-1.598 7.56-8.538 13.12-16.619 13.12-7.852 0-14.563-5.248-16.39-12.72-.228-.846-1.186-1.468-2.145-1.246a1.706 1.706 0 00-1.278 2.09C15.197 41.685 23.415 48 32.912 48c9.724 0 18.124-6.716 20.041-15.968.229-.934-.41-1.78-1.278-2.002-1.004-.178-1.963.445-2.191 1.38z" fill="#234cad"/></svg>