<svg width="376" height="93" fill="none" xmlns="http://www.w3.org/2000/svg"><path d="M42.166 44.916C42.166 38.605 38.668 31 24.828 31H5.133C3.878 31 0 29.67 0 66.399c0 27.908 2.243 26.463 4.106 26.463h8.631c.76 0 2.586.38 2.586-.875 0-.532-2.738-10.722-2.738-16.35 0-4.181 5.437-7.223 7.643-7.223 4.296 0 10.266 15.094 10.266 23.497 0 1.179 2.319.95 3.65.95h8.403c1.559 0 1.863-.151 1.863-.95 0-17.566-13.384-27.3-13.384-29.39 0-2.092 11.14-5.704 11.14-17.605zM14.334 59.631c-2.243 0-2.319-2.966-2.319-4.525-.076-12.851 2.89-15.323 9.658-15.323 4.03 0 8.402 1.711 8.402 6.388.038 6.844-13.193 13.46-15.74 13.46zm69.733 18.82c-1.787 0-6.312 4.905-13.688 4.905-6.236 0-9.392-4.296-9.392-10.266 0-7.376 5.514-10.113 9.316-10.113 2.89 0 5.741 1.482 6.463 1.482.875 0 5.057-12.129 5.057-12.205 0-1.254-2.471-1.558-3.345-1.558-6.236 0-11.521 3.498-13.917 3.498-2.09 0-2.395-2.662-2.395-4.259 0-7.148 5.437-10.19 10.57-10.19 7.3 0 9.506 3.498 10.798 3.498.951 0 5.742-10.418 5.742-11.026 0-1.483-2.662-1.255-3.574-1.255H56.387c-2.168 0-6.236 34.372-6.236 44.334.38 15.094-.836 17.718 3.118 17.566h34.144c.874 0 2.737.304 2.737-1.103 0-.722-4.98-13.307-6.083-13.307zm88.591 0c-1.787 0-6.312 4.905-13.688 4.905-6.235 0-9.391-4.296-9.391-10.266 0-7.376 5.513-10.113 9.315-10.113 2.89 0 5.741 1.482 6.464 1.482.874 0 5.057-12.129 5.057-12.205 0-1.254-2.472-1.558-3.346-1.558-6.236 0-11.521 3.498-13.916 3.498-2.091 0-2.396-2.662-2.396-4.259 0-7.148 5.438-10.19 10.57-10.19 7.301 0 9.506 3.498 10.799 3.498.95 0 5.741-10.418 5.741-11.026 0-1.483-2.661-1.255-3.574-1.255h-29.315c-2.167 0-6.236 34.372-6.236 44.334.381 15.094-.836 17.718 3.118 17.566h34.144c.875 0 2.738.304 2.738-1.103.038-.722-4.943-13.307-6.084-13.307zM212.429 31h-22.851c-1.255 0-5.133-1.33-5.133 35.399 0 27.908 2.243 26.5 4.106 26.5h9.886c.532 0 2.243.23 2.243-.683 0-.457-2.585-9.506-2.585-15.78 0-9.391 29.087-12.28 29.087-32.204C227.144 39.859 224.634 31 212.429 31zm-13.65 30.114c-2.167 0-2.319-1.636-2.319-3.422-.076-17.11 4.296-17.947 9.657-17.947 4.449 0 8.936 1.711 8.936 6.844.038 5.4-12.396 14.525-16.274 14.525zM256.877 31c-9.848 0-19.696 2.624-20.418 4.03-1.103 2.054-3.08 11.103-3.08 13.346 0 2.053.38 1.75 1.027 1.75 1.255 0 10.342-8.404 15.551-8.404 1.825 0 1.445 1.331 1.445 3.498 0 2.7-3.194 13.08-3.194 29.315 0 21.179 3.194 18.25 4.601 18.25h7.642c.95 0 3.574.381 3.574-1.254 0-1.33-4.03-10.494-4.03-29.277 0-6.73.722-20.646 5.171-20.646 5.247 0 8.25 6.046 9.467 6.046.799 0 4.373-6.92 4.373-10.152.038-3.384-10.38-6.502-22.129-6.502zm105.739 31.52c0-2.09 11.141-5.741 11.141-17.642 0-6.312-3.498-13.916-17.338-13.916h-19.696c-1.255 0-5.133-1.33-5.133 35.398 0 27.909 2.243 26.464 4.107 26.464h8.631c.76 0 2.585.38 2.585-.875 0-.532-2.738-10.722-2.738-16.35 0-4.181 5.438-7.223 7.643-7.223 4.296 0 10.266 15.094 10.266 23.497 0 1.179 2.319.95 3.65.95h8.403c1.559 0 1.863-.151 1.863-.95.038-17.528-13.384-27.261-13.384-29.353zm-16.654-2.89c-2.243 0-2.319-2.965-2.319-4.524-.076-12.851 2.89-15.323 9.658-15.323 4.03 0 8.403 1.711 8.403 6.388.038 6.844-13.194 13.46-15.742 13.46zM300.64 16.59c.114-.495-.152-.989-.646-1.103-.494-.114-.989.152-1.103.646-.608 2.32 1.103 6.16 1.331 6.578.114.266.342.419.608.495.19.038.419.038.609-.038a.95.95 0 00.456-1.217c-.684-1.407-1.597-4.107-1.255-5.361zm22.433-10.152c-.532-.152-1.14-.228-1.711-.266-1.369-2.776-3.84-4.981-7.072-5.818a10.87 10.87 0 00-9.011 1.635c-.532-.266-1.103-.456-1.635-.608-5.361-1.407-10.836 1.825-12.243 7.186a10.06 10.06 0 003.042 10.038l-3.498 13.308c-.19.836-.152 1.673.228 2.433-8.213 7.11-13.688 21.787-13.688 35.36 0 12.624 5.779 23.232 20.532 23.232h7.3c14.752 0 20.532-10.608 20.532-23.231 0-10.076-3.004-20.76-7.909-28.479.609-.494 1.065-1.14 1.255-1.94l3.498-13.345a9.964 9.964 0 007.528-7.262c1.407-5.361-1.787-10.836-7.148-12.243zm-19.619 73.61h-3.764c-7.567 0-10.532-5.36-10.532-11.786 0-9.506 5.399-20.152 12.395-20.152 6.996 0 12.395 10.646 12.395 20.152.038 6.425-2.89 11.787-10.494 11.787zm13.992-41.253a1.78 1.78 0 01-.875 1.14c-.418.266-.95.342-1.444.228L294.1 34.65c-.494-.114-.912-.456-1.178-.874a2.327 2.327 0 01-.19-.457 2.172 2.172 0 010-.988l.912-3.46 6.16 1.597 9.962 2.585 8.554 2.244-.874 3.498zm11.026-20.57c-.836 3.117-3.422 5.513-6.653 6.007-.039 0-.077.038-.153.038a1.541 1.541 0 00-.342.19.591.591 0 00-.228.304c-.038.038-.038.076-.038.152l-2.243 8.67-24.677-6.464 2.282-8.631c0-.038.038-.114.038-.152 0-.152 0-.266-.038-.418a.827.827 0 00-.19-.305l-.114-.114a8.13 8.13 0 01-2.852-8.517c1.141-4.372 5.627-6.996 10-5.855.19.038.342.114.532.19-1.293 1.33-2.281 2.966-2.776 4.867-.114.494.153.988.647 1.102.494.115.988-.19 1.102-.646 1.293-4.867 6.274-7.794 11.141-6.502 4.867 1.255 7.794 6.274 6.502 11.103-.114.494.19.988.646 1.102.494.114.989-.19 1.103-.646a10.86 10.86 0 00-.038-5.627c.19.038.38.076.532.114 4.335 1.14 6.958 5.627 5.817 10.038zm-9.087 2.319c-.494-.114-.988.152-1.103.646-.342 1.255-2.433 3.194-3.688 4.107a.876.876 0 00-.19 1.255c.114.19.304.304.494.342a.798.798 0 00.761-.152c.38-.267 3.764-2.776 4.372-5.095a.866.866 0 00-.646-1.103zm-9.696-2.547c-.494-.115-.988.152-1.102.646l-1.407 5.323c-.114.494.152.988.646 1.103.495.114.989-.152 1.103-.647l1.369-5.285c.19-.494-.114-.988-.609-1.14zm-180.3 64.827c-.19-.418-.38-.874-.57-1.255-.228-.494-.457-.95-.685-1.368-.076-.152-.19-.305-.266-.457a3.337 3.337 0 00-.228-.38.83.83 0 00-.114-.19c-.076-.114-.152-.19-.19-.304-.152-.19-.228-.38-.494-.418-.229-.038-.457.038-.685.114a6.22 6.22 0 00-.494.228c-.038 0-.038.038-.076.038-2.015.912-4.221 1.217-6.426 1.217-.418 0-.874 0-1.331-.039-1.597-.076-3.27-.19-4.905-.494h-.038c-5.285-1.293-8.174-4.905-9.201-9.467a20.803 20.803 0 01-.304-1.635l-.114-1.255c-.038-.456-.038-.95-.038-1.445.038-8.82 4.296-18.364 10.57-22.319 1.445-.912 3.004-1.559 4.639-1.787a9.733 9.733 0 011.482-.114c1.902 0 3.689.532 5.4 1.445a.793.793 0 01.228.152c.19.114.38.19.608.152h.038c.152-.038.266-.076.38-.19l.114-.114c.153-.152.267-.342.381-.532.456-.799.912-1.56 1.368-2.358.419-.798.837-1.597 1.255-2.433.266-.532.532-1.103.761-1.635.152-.304.304-.608.418-.913.646-1.482 1.141-2.623 1.141-2.813v-.076c0-.19-.077-.343-.153-.495a.082.082 0 00-.076-.076c-.532-.646-1.939-.646-2.851-.646H127.564c-1.939.038-3.878 0-5.817 0h-2.776c-3.346.076-6.692.38-9.81 1.597-5.969 2.281-10.494 7.49-13.421 13.041-.115.229-.267.495-.38.723-.039.076-.077.152-.115.19l-.456 1.027-.456 1.14c-.114.304-.228.609-.343.95-.114.267-.19.571-.304.837-1.863 5.323-2.851 10.95-3.156 16.54-.228 3.916-.114 7.832.875 11.635.38 1.445.912 2.851 1.597 4.182 1.103 2.13 2.585 4.068 4.449 5.551 2.927 2.32 6.653 3.422 10.341 3.955 1.864.266 3.727.418 5.59.494h16.805c.685 0 1.94.19 2.472-.38.038-.076.076-.114.114-.152.038-.076.076-.153.114-.267.038-.076.038-.19.038-.266v-.114c-.076-.456-.951-2.852-2.053-5.475-.456-1.065-.989-2.243-1.483-3.346z" fill="#234cad"/></svg>