<svg width="19" height="19" fill="none" xmlns="http://www.w3.org/2000/svg"><path d="M5.182 9.068a.432.432 0 10-.864 0c0 1.134 1.25 2.691 1.393 2.865a.433.433 0 00.668-.548c-.463-.564-1.197-1.692-1.197-2.317zM14.25 8.636a.432.432 0 00-.432.432c0 .623-.734 1.752-1.197 2.317a.432.432 0 00.668.548c.142-.174 1.393-1.73 1.393-2.865a.432.432 0 00-.432-.432zM9.5 8.636a.432.432 0 00-.432.432v2.591a.432.432 0 10.864 0V9.07a.432.432 0 00-.432-.433z" fill="#234cad"/><path d="M14.25 1.727c-.262 0-.535.035-.82.088A5.168 5.168 0 009.5 0C7.928 0 6.52.706 5.57 1.815a4.527 4.527 0 00-.82-.088C2.13 1.727 0 3.858 0 6.477a4.748 4.748 0 002.601 4.233l-.008 6.526c0 .471.182.914.515 1.247A1.75 1.75 0 004.354 19h10.293c.972 0 1.762-.79 1.762-1.762v-6.534A4.75 4.75 0 0019 6.477c0-2.619-2.13-4.75-4.75-4.75zm1.295 15.511a.9.9 0 01-.898.898H4.354a.893.893 0 01-.635-.263.892.892 0 01-.263-.636l.002-1.691h12.087v1.692zm.268-7.206a.422.422 0 00-.263.336.418.418 0 00-.005.073v4.24H3.46l.005-4.234a.445.445 0 00-.072-.25.428.428 0 00-.197-.16 3.885 3.885 0 01-2.332-3.56A3.89 3.89 0 014.75 2.591c.084 0 .172.01.259.017a5.144 5.144 0 00-.69 2.574.432.432 0 10.863 0A4.323 4.323 0 019.5.864a4.323 4.323 0 014.318 4.318.432.432 0 10.864 0c0-.937-.254-1.815-.69-2.574.086-.007.174-.017.258-.017a3.89 3.89 0 013.886 3.886 3.887 3.887 0 01-2.323 3.555z" fill="#234cad"/></svg>