<svg width="431" height="512" fill="none" xmlns="http://www.w3.org/2000/svg"><path d="M159.075 343.075c29.285-29.285 29.285-76.765 0-106.05-29.285-29.285-76.765-29.285-106.05 0-29.285 29.285-29.285 76.765 0 106.05 29.285 29.285 76.765 29.285 106.05 0z" fill="#CB5935"/><path d="M112.195 320.798c19.937 0 36.099-16.162 36.099-36.099 0-19.937-16.162-36.099-36.099-36.099-19.937 0-36.1 16.162-36.1 36.099 0 19.937 16.163 36.099 36.1 36.099z" fill="#B0865A"/><path d="M249.371 416.258c-42.021 0-76.208 34.487-76.208 76.877V504.5h152.418v-11.365c-.001-42.39-34.188-76.877-76.21-76.877z" fill="#F2F6FF"/><path d="M249.371 416.258c-42.027 0-76.208 34.494-76.208 76.877V504.5h37.572v-36.554a30.16 30.16 0 014.711-16.154c10.942-17.242 28.51-29.809 49.06-34.006a75.602 75.602 0 00-15.135-1.528z" fill="#B9C7E5"/><path d="M386.547 320.798c19.936 0 36.099-16.162 36.099-36.099 0-19.937-16.163-36.099-36.099-36.099-19.937 0-36.099 16.162-36.099 36.099 0 19.937 16.162 36.099 36.099 36.099z" fill="#B0865A"/><path d="M290.556 424.037c60.347-17.591 104.443-73.311 104.443-139.337 0-80.153-64.976-145.129-145.129-145.129-80.15 0-145.127 64.976-145.127 145.129 0 66.026 44.097 121.746 104.442 139.337a145.172 145.172 0 0040.684 5.789 145.11 145.11 0 0040.687-5.789z" fill="#D5AB80"/><path d="M152.852 284.7c0-71.957 52.372-131.671 121.073-143.133a146.02 146.02 0 00-24.055-1.996c-80.15 0-145.127 64.976-145.127 145.129 0 80.15 64.977 145.126 145.127 145.126 8.196 0 16.229-.69 24.055-1.996-68.701-11.461-121.073-71.175-121.073-143.13z" fill="#B0865A"/><path d="M309.83 248.595a113.212 113.212 0 0085.169 36.104c0-80.644-65.481-145.128-145.129-145.128-80.15 0-145.127 64.976-145.127 145.129v.026c70.856 14.705 144.208 1.479 205.087-36.131z" fill="#DD6642"/><path d="M273.905 141.57a145.706 145.706 0 00-24.035-1.999c-80.15 0-145.127 64.976-145.127 145.129v.026a281.284 281.284 0 0048.228 5.716 147.92 147.92 0 01-.119-5.742c0-71.95 52.362-131.66 121.053-143.13z" fill="#CB5935"/><path d="M360.051 7.502H138.698c-16.569 0-30 13.432-30 30v211.1c89.459-38.985 191.426-39.186 281.353 0v-211.1c0-16.569-13.431-30-30-30z" fill="#F2F6FF"/><path d="M189.169 7.5h-50.478c-16.569 0-30 13.431-30 30v211.1a352.135 352.135 0 0154.175-18.525V71.001A89.804 89.804 0 01189.169 7.5z" fill="#B9C7E5"/><path d="M162.87 56.001c-8.284 0-15 6.716-15 15v113.281c0 8.284 6.716 15 15 15 8.284 0 15-6.716 15-15V71.001c0-8.284-6.716-15-15-15zM249.371 56.001c-8.284 0-15 6.716-15 15v113.281c0 8.284 6.716 15 15 15 8.284 0 15-6.716 15-15V71.001c0-8.284-6.716-15-15-15zM335.873 56.001c-8.284 0-15 6.716-15 15v113.281c0 8.284 6.716 15 15 15 8.284 0 15-6.716 15-15V71.001c0-8.284-6.716-15-15-15z" fill="#B9C7E5"/><path d="M199.869 338.602c-.031 9.896-10.13 17.886-22.556 17.847-12.426-.039-22.475-8.092-22.444-17.988.031-9.896 10.13-17.886 22.556-17.847 12.427.039 22.475 8.092 22.444 17.988zM298.87 338.894c-.031 9.896 10.017 17.949 22.444 17.988 12.426.039 22.525-7.951 22.556-17.847.031-9.896-10.017-17.949-22.444-17.988-12.427-.04-22.525 7.951-22.556 17.847z" fill="#FFC8AB"/><path d="M185.371 301a7.5 7.5 0 00-7.5 7.5v10a7.5 7.5 0 0015 0v-10a7.5 7.5 0 00-7.5-7.5zM313.371 301a7.5 7.5 0 00-7.5 7.5v10a7.5 7.5 0 0015 0v-10a7.5 7.5 0 00-7.5-7.5zM269.107 329.734a7.498 7.498 0 00-10.001 3.531c-1.667 3.484-5.291 5.735-9.235 5.735-3.944 0-7.568-2.251-9.234-5.735a7.5 7.5 0 10-13.532 6.47c4.144 8.666 13.08 14.265 22.766 14.265 9.686 0 18.623-5.599 22.766-14.265a7.5 7.5 0 00-3.53-10.001z" fill="#012477"/><path d="M430.146 284.699c0-20.231-13.61-37.314-32.598-42.195V37.5c0-20.678-16.822-37.5-37.5-37.5H138.695c-20.678 0-37.5 16.822-37.5 37.5v173.911c-42.271 3.521-75.6 39.025-75.6 82.19 0 23.021 9.76 45.178 26.775 60.788a7.5 7.5 0 0010.14-11.054c-13.927-12.776-21.915-30.904-21.915-49.734 0-34.89 26.608-63.683 60.599-67.15v16.053c-18.988 4.881-32.6 21.965-32.6 42.196 0 20.753 14.325 38.194 34.084 42.547a151.206 151.206 0 0014.12 33.276 67.151 67.151 0 01-31.331-3.324 7.5 7.5 0 00-5.043 14.127 82.25 82.25 0 0045.22 2.869c17.28 23.859 41.612 42.954 70.678 53.717-19.211 15.869-30.661 39.667-30.661 65.224V504.5a7.5 7.5 0 007.5 7.5h152.418a7.5 7.5 0 007.5-7.5v-11.364a84.796 84.796 0 00-3.438-23.959 7.502 7.502 0 00-14.391 4.234 69.847 69.847 0 012.828 19.725V497h-99.846v-29.054c0-4.286 1.226-8.482 3.544-12.135 4.384-6.908 10.37-12.866 18.76-18.675 2.933.168 5.877.262 8.833.264a152.57 152.57 0 0034.858-4.009 69.031 69.031 0 0118.565 16.175 7.5 7.5 0 1011.702-9.384 84.522 84.522 0 00-12.086-12.273c44.455-16.5 79.939-53.346 93.656-100.662 19.759-4.355 34.082-21.795 34.082-42.548zm-43.284-7.564c-14.016-.81-45.965-5.834-71.76-33.417a7.5 7.5 0 00-9.644-1.508c-58.127 35.91-126.661 48.726-193.65 36.347a138.1 138.1 0 013.292-24.513c85.549-36.18 182.975-36.181 268.526-.006a138.079 138.079 0 013.236 23.097zM116.195 37.5c0-12.407 10.093-22.5 22.5-22.5h221.353c12.406 0 22.5 10.093 22.5 22.5v199.849c-42.632-16.979-87.898-25.465-133.177-25.465-45.273 0-90.55 8.488-133.176 25.465V37.5zm92.918 410.273a37.6 37.6 0 00-5.879 20.172V497h-22.572v-3.864c0-24.622 12.903-47.259 33.853-59.754 1.809.423 3.624.817 5.447 1.173-4.266 4.115-7.832 8.465-10.849 13.218zm40.258-25.373h-.03c-64.89 0-121.56-46.03-134.77-109.45-1.41-6.778-10.563-8.19-13.92-2.06-10.143-4.433-17.055-14.512-17.055-26.19 0-10.946 6.072-20.486 15.184-25.29-2.331 13.974-2.11 25.29-2.11 25.29 0 3.527 2.507 6.646 6.029 7.353a290.302 290.302 0 0059.119 6.1c51.166 0 101.549-13.637 146.364-40.067 29.211 28.48 63.26 33.439 78.681 34.119-3.9 72.802-64.12 130.174-137.492 130.195zm150.617-112.426a153.993 153.993 0 002.083-25.275c0-.019-.003-.037-.003-.055a153.504 153.504 0 00-2.114-25.239c9.115 4.803 15.191 14.345 15.191 25.294.001 10.935-6.06 20.466-15.157 25.275z" fill="#012477"/><path d="M162.87 48.501a7.5 7.5 0 000 15c4.136 0 7.5 3.364 7.5 7.5v113.281a7.45 7.45 0 01-1.233 4.109 7.5 7.5 0 1012.529 8.249 22.419 22.419 0 003.705-12.358V71.001c-.001-12.407-10.094-22.5-22.501-22.5zM256.871 71.001v113.281a7.45 7.45 0 01-1.233 4.109 7.5 7.5 0 1012.529 8.249 22.419 22.419 0 003.705-12.358V71.001c0-12.407-10.093-22.5-22.5-22.5a7.5 7.5 0 000 15c4.135 0 7.499 3.364 7.499 7.5zM335.873 63.501c4.136 0 7.5 3.364 7.5 7.5v113.281a7.465 7.465 0 01-1.232 4.109 7.5 7.5 0 1012.528 8.249 22.41 22.41 0 003.705-12.358V71.001c0-12.407-10.094-22.5-22.5-22.5a7.5 7.5 0 00-7.5 7.5 7.5 7.5 0 007.499 7.5zM249.371 479.945a7.5 7.5 0 100-15 7.5 7.5 0 000 15z" fill="#012477"/></svg>