<svg width="378" height="512" fill="none" xmlns="http://www.w3.org/2000/svg"><path d="M188.708 383.425c-66.759 0-121.072 54.314-121.072 121.075h242.147c-.001-66.761-54.314-121.075-121.075-121.075z" fill="#F2F6FF"/><path d="M188.708 383.425c-66.759 0-121.072 54.314-121.072 121.075h66.073v-58.952c0-2.954.857-5.853 2.502-8.306 17.47-26.05 44.767-44.98 76.552-51.413a121.167 121.167 0 00-24.055-2.404z" fill="#B9C7E5"/><path d="M188.709 456.61c8.284 0 15-6.716 15-15 0-8.284-6.716-15-15-15-8.284 0-15 6.716-15 15 0 8.284 6.716 15 15 15zM188.709 504.5c8.284 0 15-6.716 15-15 0-8.284-6.716-15-15-15-8.284 0-15 6.716-15 15 0 8.284 6.716 15 15 15z" fill="#B9C7E5"/><path d="M43.581 215.048c-19.927 0-36.081 16.154-36.081 36.081 0 19.928 16.154 36.082 36.081 36.082 19.927 0 36.082-16.154 36.082-36.082 0-19.927-16.155-36.081-36.082-36.081zM333.837 215.048c-19.927 0-36.082 16.154-36.082 36.081 0 19.928 16.154 36.082 36.082 36.082s36.081-16.154 36.081-36.082c0-19.927-16.154-36.081-36.081-36.081z" fill="#ECCBA9"/><path d="M229.393 390.466c60.347-17.591 104.443-73.311 104.443-139.337C333.836 170.976 268.86 106 188.707 106c-80.15 0-145.127 64.976-145.127 145.129 0 66.026 44.097 121.746 104.442 139.337a145.172 145.172 0 0040.684 5.789c14.127 0 27.777-2.026 40.687-5.789z" fill="#FFE3C7"/><path d="M91.69 251.129c0-71.957 52.372-131.671 121.073-143.133A146.02 146.02 0 00188.708 106c-80.15 0-145.127 64.976-145.127 145.129 0 80.15 64.977 145.127 145.127 145.127 8.196 0 16.229-.69 24.055-1.996C144.062 382.798 91.69 323.084 91.69 251.129z" fill="#ECCBA9"/><path d="M225.502 215.319c25.031 36.415 78.868 36.384 103.879.005C313.437 152.488 256.504 106 188.708 106c-67.792 0-124.725 46.486-140.67 109.322 54.203 36.814 124.679 35.898 177.464-.003z" fill="#E37858"/><path d="M212.763 107.996l.014-.003A146.082 146.082 0 00188.708 106c-67.792 0-124.725 46.486-140.67 109.322a157.597 157.597 0 0044.415 20.928c6.64-65.18 56.406-117.593 120.31-128.254z" fill="#DD6642"/><path d="M299.393 7.502H78.04c-16.569 0-30 13.432-30 30v177.819c89.459-38.985 191.426-39.186 281.353 0V37.502c0-16.569-13.431-30-30-30z" fill="#F2F6FF"/><path d="M128.511 7.5H78.033c-16.569 0-30 13.431-30 30v177.819a352.14 352.14 0 0154.175-18.525V71.001A89.8 89.8 0 01128.511 7.5z" fill="#B9C7E5"/><path d="M102.208 56.001c-8.284 0-15 6.716-15 15v80c0 8.284 6.716 15 15 15 8.284 0 15-6.716 15-15v-80c0-8.284-6.716-15-15-15zM188.709 56.001c-8.284 0-15 6.716-15 15v80c0 8.284 6.716 15 15 15 8.284 0 15-6.716 15-15v-80c0-8.284-6.716-15-15-15zM275.21 56.001c-8.284 0-15 6.716-15 15v80c0 8.284 6.716 15 15 15 8.284 0 15-6.716 15-15v-80c0-8.284-6.715-15-15-15z" fill="#B9C7E5"/><path d="M139.209 297.988c-.031 9.896-10.13 17.886-22.556 17.847-12.426-.039-22.475-8.092-22.444-17.988.031-9.896 10.13-17.886 22.556-17.847 12.426.038 22.475 8.092 22.444 17.988zM238.209 298.279c-.031 9.896 10.017 17.949 22.444 17.988 12.426.039 22.525-7.951 22.556-17.847.031-9.896-10.017-17.95-22.444-17.988-12.426-.039-22.525 7.951-22.556 17.847z" fill="#FFC8AB"/><path d="M124.709 260.5a7.5 7.5 0 00-7.5 7.5v10a7.5 7.5 0 0015 0v-10a7.5 7.5 0 00-7.5-7.5zM252.709 260.5a7.5 7.5 0 00-7.5 7.5v10a7.5 7.5 0 0015 0v-10a7.5 7.5 0 00-7.5-7.5zM208.444 289.234a7.498 7.498 0 00-10.001 3.531c-1.666 3.484-5.291 5.735-9.234 5.735-3.943 0-7.568-2.251-9.234-5.735a7.5 7.5 0 10-13.532 6.47c4.144 8.666 13.08 14.265 22.766 14.265 9.686 0 18.623-5.599 22.766-14.265a7.5 7.5 0 00-3.531-10.001z" fill="#012477"/><path d="M334.995 294.681c23.495-.618 42.422-19.91 42.422-43.552 0-23.005-17.92-41.891-40.532-43.463V37.5c0-20.678-16.822-37.5-37.5-37.5H78.033c-20.678 0-37.5 16.822-37.5 37.5v170.166C17.921 209.238 0 228.124 0 251.129c0 23.628 18.905 42.912 42.382 43.551 12.958 43.685 44.82 78.778 85.655 96.5-41.26 22.157-67.901 65.599-67.901 113.32a7.5 7.5 0 007.5 7.5h242.146a7.5 7.5 0 007.5-7.5c0-47.728-26.649-91.175-67.918-113.329 41.004-17.827 72.704-53.148 85.631-96.49zm27.423-43.552c0 14.093-10.256 25.829-23.695 28.155a152.801 152.801 0 002.614-28.155c0-9.465-.875-18.897-2.602-28.153 13.433 2.331 23.683 14.064 23.683 28.153zM55.533 37.5c0-12.407 10.093-22.5 22.5-22.5h221.353c12.406 0 22.5 10.093 22.5 22.5v166.566a359.754 359.754 0 00-77.393-21.213 7.496 7.496 0 00-8.572 6.247 7.5 7.5 0 006.247 8.572 344.726 344.726 0 0175.036 20.685c-24.486 25.137-65.748 21.481-85.521-7.286a7.5 7.5 0 00-10.398-1.953c-47.273 32.153-107.31 34.655-156.69 7.528 48.833-18.89 99.365-25.745 148.41-22.284 4.116.288 7.718-2.822 8.009-6.954a7.5 7.5 0 00-6.954-8.009c-53.56-3.781-107.514 4.295-158.528 24.665V37.5h.001zm125.676 452c0-4.136 3.364-7.5 7.5-7.5s7.5 3.364 7.5 7.5-3.364 7.5-7.5 7.5-7.5-3.364-7.5-7.5zm120.824 7.5h-92.114a22.38 22.38 0 001.29-7.5c0-12.407-10.093-22.5-22.5-22.5s-22.5 10.093-22.5 22.5c0 2.629.458 5.153 1.29 7.5H75.385c2.927-44.028 31.448-82.825 73.016-98.658a151.734 151.734 0 0012.081 2.793 129.684 129.684 0 00-30.502 31.925c-2.47 3.69-3.77 8-3.77 12.49v28.95c0 4.14 3.36 7.5 7.5 7.5 4.14 0 7.5-3.36 7.5-7.5v-28.95c0-1.51.43-2.93 1.23-4.13a114.5 114.5 0 0142.156-37.724c15.078.402 29.961-1.389 44.422-5.353 41.567 15.832 70.088 54.63 73.015 98.657zM188.708 388.755c-69.475 0-128.202-51.917-136.605-120.763a7.497 7.497 0 00-8.354-6.536 7.5 7.5 0 00-6.536 8.354c.39 3.192.885 6.348 1.467 9.472C25.248 276.95 15 265.218 15 251.13c0-14.089 10.25-25.822 23.682-28.153a153.198 153.198 0 00-2.072 15.369 7.502 7.502 0 007.483 8.122c3.86 0 7.14-2.962 7.466-6.879.339-4.076.869-8.149 1.571-12.186 52.857 31.028 118.76 30.126 170.648-2.021 25.805 30.274 71.681 33.251 101.182 6.349a138.795 138.795 0 011.378 19.399c-.001 75.887-61.741 137.625-137.63 137.625z" fill="#012477"/><path d="M166.209 441.61c0 12.407 10.093 22.5 22.5 22.5s22.5-10.093 22.5-22.5-10.093-22.5-22.5-22.5-22.5 10.093-22.5 22.5zm22.5-7.5c4.136 0 7.5 3.364 7.5 7.5s-3.364 7.5-7.5 7.5-7.5-3.364-7.5-7.5 3.364-7.5 7.5-7.5zM102.208 48.501a7.5 7.5 0 000 15c4.136 0 7.5 3.364 7.5 7.5v80c0 2.368-1.099 4.552-3.016 5.991a7.5 7.5 0 009.008 11.994c5.725-4.299 9.008-10.855 9.008-17.985v-80c0-12.407-10.094-22.5-22.5-22.5zM196.209 71.001v80c0 2.368-1.099 4.552-3.016 5.991a7.5 7.5 0 009.008 11.994c5.725-4.299 9.008-10.855 9.008-17.985v-80c0-12.407-10.093-22.5-22.5-22.5a7.5 7.5 0 000 15c4.136 0 7.5 3.364 7.5 7.5zM275.211 63.501c4.136 0 7.5 3.364 7.5 7.5v80c0 2.368-1.1 4.552-3.016 5.992a7.5 7.5 0 109.008 11.993c5.725-4.3 9.008-10.855 9.008-17.985v-80c0-12.407-10.094-22.5-22.5-22.5a7.5 7.5 0 00-7.5 7.5 7.5 7.5 0 007.5 7.5z" fill="#012477"/></svg>